<?xml version="1.0" encoding="UTF-8" standalone="no"?>
<!-- Created with Inkscape (http://www.inkscape.org/) -->

<svg
   width="343.56281mm"
   height="71.440086mm"
   viewBox="0 0 343.56281 71.440087"
   version="1.1"
   id="svg5"
   xml:space="preserve"
   xmlns="http://www.w3.org/2000/svg"
   xmlns:svg="http://www.w3.org/2000/svg"><defs
     id="defs2" /><g
     id="layer1"
     transform="translate(67.252175,-10.623119)"><path
       id="path910"
       style="opacity:1;fill:#663399;fill-opacity:1;stroke-width:0.600001;stroke-linejoin:round"
       d="m 41.654846,10.623124 c 0,0 -3.490738,0.340228 -5.172294,0.806152 -2.111669,0.5851 -4.151576,1.453151 -6.090068,2.474785 -2.319913,1.222652 -4.562176,2.642962 -6.562907,4.338236 -1.236023,1.047317 -2.26394,2.321842 -3.309358,3.559473 -1.130346,1.338174 -2.268908,2.685205 -3.196188,4.171321 -1.255279,2.011787 -2.389182,4.129678 -3.170349,6.368604 -0.792955,2.272712 -1.094191,4.31377 -2.704062,5.637329 -2.2848151,1.878466 -3.3711136,2.218253 -8.591885,2.218253 h -70.10991 V 56.239731 H 4.8515149 c 4.0563475,0 6.5120181,-0.07099 9.6147591,-0.931799 2.888577,-0.801387 5.766687,-2.009573 8.118603,-3.868226 2.058673,-1.626912 3.58124,-3.884665 4.936708,-6.13137 1.465402,-2.428922 2.045023,-5.306749 3.375288,-7.812235 0.992137,-1.868641 2.708566,-4.647026 3.416302,-5.349231 1.105556,-1.096917 2.340644,-2.127197 3.754293,-2.780709 1.114354,-0.515151 3.587378,-0.834574 3.587378,-0.834574 v 53.531616 h 42.961202 19.354892 c 0,0 1.79074,-0.07004 2.67787,-0.187069 0.87733,-0.115737 1.75933,-0.249064 2.60553,-0.507979 0.95324,-0.291663 1.88751,-0.673841 2.75332,-1.167888 0.84056,-0.479632 1.61172,-1.082322 2.33577,-1.724442 0.81946,-0.726726 1.58095,-1.527197 2.25361,-2.391585 0.59389,-0.763168 1.13694,-1.576361 1.55805,-2.446879 0.40519,-0.83762 0.69013,-1.734203 0.91519,-2.637049 0.23411,-0.939139 0.3517,-1.905901 0.447,-2.869075 0.15074,-1.523543 0.19637,-4.588868 0.19637,-4.588868 v -7.313248 h 14.01568 c 0,0 0.4633,1.651195 0.77876,2.446879 0.72733,1.834524 1.5261,3.657042 2.55799,5.339209 1.14787,1.871242 2.51156,3.619056 4.00492,5.228104 1.40235,1.510981 2.95784,2.890878 4.61574,4.116028 1.81301,1.339771 3.76193,2.508396 5.78466,3.503662 1.7484,0.860287 3.55901,1.644523 5.45031,2.113567 2.48197,0.615532 6.05177,1.31794 9.11413,1.204487 4.49092,-0.166378 7.68937,-0.635945 13.19844,-2.750511 5.50907,-2.114566 9.61861,-5.139424 13.18437,-9.119356 2.87344,-3.2072 5.28416,-7.530045 9.20757,-9.591043 4.5497,-2.389994 4.85879,-2.480416 15.2169,-2.480416 0,0 6.96544,-0.09388 11.6327,0 l 19.50759,0.392375 0.0392,8.164769 28.28803,-16.475713 -28.18286,-16.321231 -0.32266,8.197346 h -22.65011 -14.03837 c -10.55422,0.03974 -16.0527,2.063885 -20.70612,5.895851 -5.05067,4.114327 -8.05892,10.832071 -13.68381,14.262514 -3.48586,2.125913 -7.65788,3.426443 -11.74031,3.493046 -2.338,0.03814 -4.69684,-0.728428 -6.78532,-1.780064 -1.50761,-0.759143 -2.78522,-1.947259 -3.94898,-3.169899 -1.08912,-1.14422 -1.9613,-2.48695 -2.78071,-3.837492 -0.58061,-0.956951 -1.50172,-3.003434 -1.50172,-3.003434 0,0 3.03154,-1.584985 4.33772,-2.669604 1.44398,-1.199041 2.73564,-2.613281 3.7822,-4.171322 1.07732,-1.603844 1.88365,-3.397878 2.50269,-5.228105 0.55219,-1.632588 0.87971,-3.346864 1.05678,-5.061189 0.18285,-1.770317 0.14678,-3.565537 0,-5.339209 -0.1209,-1.461026 -0.31372,-2.930493 -0.72295,-4.338237 -0.47771,-1.6433 -1.13534,-3.251981 -2.00246,-4.72736 -0.80989,-1.378006 -1.76766,-2.704005 -2.94763,-3.782198 -1.41597,-1.29384 -3.12433,-2.253861 -4.83846,-3.114539 -1.69863,-0.852894 -3.49996,-1.52242 -5.33921,-2.001945 -2.14135,-0.558289 -6.56291,-1.000972 -6.56291,-1.000972 H 102.4165 l 0.0274,51.924996 c -0.0331,-1.830199 -0.17686,-3.661302 -0.61133,-5.429126 -0.34594,-1.407703 -0.92443,-2.777231 -1.69602,-4.004407 -1.051417,-1.672234 -2.420811,-3.156489 -3.916043,-4.447274 -1.264468,-1.091575 -2.728939,-1.94425 -4.204394,-2.727482 -0.755748,-0.401181 -2.36368,-1.000972 -2.36368,-1.000972 0,0 3.122323,-1.439795 4.477246,-2.475301 1.41666,-1.082689 2.73423,-2.35602 3.726388,-3.837492 1.02338,-1.528093 1.681301,-3.295781 2.196763,-5.06119 0.26309,-0.901069 0.37439,-1.844671 0.44494,-2.780709 0.0836,-1.109312 0.0676,-2.228868 -0.0274,-3.337264 -0.10746,-1.254164 -0.2301,-2.526913 -0.611852,-3.726387 -0.494109,-1.552477 -1.195554,-3.067043 -2.141471,-4.393531 -1.019899,-1.430234 -2.316775,-2.67817 -3.726388,-3.726387 -1.790441,-1.331409 -3.806204,-2.38662 -5.895247,-3.170349 -1.949551,-0.731397 -4.035806,-1.049954 -6.090068,-1.390096 -1.323992,-0.219225 -4.004406,-0.417029 -4.004406,-0.417029 z m 94.188054,13.84825 c 0,0 3.3403,0.291764 4.78265,1.056783 1.26277,0.669774 2.38468,1.7186 3.11454,2.947624 0.66592,1.121355 0.88297,2.483414 1.00149,3.782198 0.0879,0.962962 0.008,1.953287 -0.22273,2.89233 -0.30313,1.233954 -0.68055,2.534019 -1.50172,3.503662 -0.75439,0.890796 -1.85945,1.468317 -2.94762,1.890841 -1.63081,0.633223 -5.17229,0.889868 -5.17229,0.889868 l -14.96085,0.05581 -0.0558,-16.963306 z m -76.167965,0.08372 h 15.962333 c 0,0 2.258512,0.308983 3.308842,0.722953 0.962794,0.37947 1.927491,0.863642 2.669604,1.584917 0.621575,0.60412 1.101888,1.379997 1.390613,2.197282 0.323219,0.914924 0.355409,1.921715 0.33383,2.891813 -0.02338,1.051251 -0.06004,2.159839 -0.500745,3.114538 -0.413391,0.895522 -1.098661,1.704569 -1.918746,2.252576 -1.101733,0.736212 -2.493172,0.916715 -3.782198,1.223698 -0.702624,0.167331 -2.140955,0.33383 -2.140955,0.33383 H 59.730745 Z m 0.02791,28.225667 h 16.87959 c 0,0 2.759422,0.16261 4.060217,0.583944 0.986041,0.319385 1.985566,0.749034 2.752803,1.445907 0.689034,0.62584 1.177827,1.474501 1.529623,2.336291 0.360695,0.883589 0.505432,1.855582 0.556038,2.808614 0.03849,0.724827 -0.05043,1.457414 -0.194303,2.16886 -0.192901,0.953898 -0.37158,1.956992 -0.889868,2.780709 -0.495973,0.78825 -1.241726,1.423912 -2.030367,1.919263 -0.814935,0.511866 -1.765985,0.787242 -2.69751,1.028877 -0.942709,0.244537 -2.891813,0.417029 -2.891813,0.417029 h -17.04651 z" /></g></svg>
