<?xml version="1.0" encoding="UTF-8" standalone="no"?>
<!-- Created with Inkscape (http://www.inkscape.org/) -->

<svg
   width="184.32152mm"
   height="75.190758mm"
   viewBox="0 0 184.32152 75.190758"
   version="1.1"
   id="svg5"
   xml:space="preserve"
   inkscape:version="1.2.1 (9c6d41e410, 2022-07-14)"
   sodipodi:docname="BROGV.svg"
   xmlns:inkscape="http://www.inkscape.org/namespaces/inkscape"
   xmlns:sodipodi="http://sodipodi.sourceforge.net/DTD/sodipodi-0.dtd"
   xmlns="http://www.w3.org/2000/svg"
   xmlns:svg="http://www.w3.org/2000/svg"><sodipodi:namedview
     id="namedview7"
     pagecolor="#ffffff"
     bordercolor="#000000"
     borderopacity="0.25"
     inkscape:showpageshadow="2"
     inkscape:pageopacity="0.0"
     inkscape:pagecheckerboard="0"
     inkscape:deskcolor="#d1d1d1"
     inkscape:document-units="mm"
     showgrid="false"
     inkscape:zoom="1.6819304"
     inkscape:cx="299.65568"
     inkscape:cy="133.1803"
     inkscape:window-width="2240"
     inkscape:window-height="1320"
     inkscape:window-x="-11"
     inkscape:window-y="-11"
     inkscape:window-maximized="1"
     inkscape:current-layer="layer1" /><defs
     id="defs2" /><g
     inkscape:label="Layer 1"
     inkscape:groupmode="layer"
     id="layer1"
     transform="translate(-12.472131,-10.623124)"><path
       id="path910"
       style="opacity:1;fill:#663399;fill-opacity:1;stroke-width:0.600001;stroke-linejoin:round"
       d="M 41.654846 10.623124 C 41.654846 10.623124 38.164108 10.963352 36.482552 11.429276 C 34.370883 12.014376 32.330976 12.882427 30.392484 13.904061 C 28.072571 15.126713 25.830308 16.547023 23.829577 18.242297 C 22.593554 19.289614 21.565637 20.564139 20.520219 21.80177 C 19.389873 23.139944 18.251311 24.486975 17.324031 25.973091 C 16.068752 27.984878 14.934849 30.102769 14.153682 32.341695 C 13.360727 34.614407 12.982325 37.020536 12.651965 39.40483 C 12.535943 40.242194 12.508445 41.090384 12.48505 41.935425 C 12.43605 43.705277 12.540861 47.246728 12.540861 47.246728 L 28.779663 47.246728 C 28.779663 47.246728 28.655319 43.788513 28.973966 42.102339 C 29.323994 40.250107 29.949305 38.42582 30.837418 36.763131 C 31.744914 35.064153 32.945846 33.503519 34.313175 32.146875 C 35.418731 31.049958 36.653819 30.019678 38.067468 29.366166 C 39.181822 28.851015 41.654846 28.531592 41.654846 28.531592 L 41.654846 82.063208 L 84.616048 82.063208 L 103.97094 82.063208 C 103.97094 82.063208 105.76168 81.993171 106.64881 81.876139 C 107.52614 81.760402 108.40814 81.627075 109.25434 81.36816 C 110.20758 81.076497 111.14185 80.694319 112.00766 80.200272 C 112.84822 79.72064 113.61938 79.11795 114.34343 78.47583 C 115.16289 77.749104 115.92438 76.948633 116.59704 76.084245 C 117.19093 75.321077 117.73398 74.507884 118.15509 73.637366 C 118.56028 72.799746 118.84522 71.903163 119.07028 71.000317 C 119.30439 70.061178 119.42198 69.094416 119.51728 68.131242 C 119.66802 66.607699 119.71365 63.542374 119.71365 63.542374 L 119.71365 56.229126 L 133.72933 56.229126 C 133.72933 56.229126 134.19263 57.880321 134.50809 58.676005 C 135.23542 60.510529 136.03419 62.333047 137.06608 64.015214 C 138.21395 65.886456 139.57764 67.63427 141.071 69.243318 C 142.47335 70.754299 144.02884 72.134196 145.68674 73.359346 C 147.49975 74.699117 149.44867 75.867742 151.4714 76.863008 C 153.2198 77.723295 155.03041 78.507531 156.92171 78.976575 C 159.40368 79.592107 161.98682 79.981346 164.5414 79.866443 C 166.8821 79.76116 171.42212 78.427771 171.42212 78.427771 L 173.35843 85.813883 L 196.7937 63.335152 L 165.43799 54.533105 L 167.16346 62.553288 C 165.77545 62.846885 164.64639 63.141475 163.37351 63.070052 C 161.63611 62.972562 159.89168 62.521099 158.31232 61.790543 C 156.80426 61.092965 155.43182 60.068844 154.25211 58.89873 C 153.13055 57.786296 152.29081 56.41178 151.4714 55.061238 C 150.89079 54.104287 149.96968 52.057804 149.96968 52.057804 C 149.96968 52.057804 153.00122 50.472819 154.3074 49.3882 C 155.75138 48.189159 157.04304 46.774919 158.0896 45.216878 C 159.16692 43.613034 159.97325 41.819 160.59229 39.988773 C 161.14448 38.356185 161.472 36.641909 161.64907 34.927584 C 161.83192 33.157267 161.79585 31.362047 161.64907 29.588375 C 161.52817 28.127349 161.33535 26.657882 160.92612 25.250138 C 160.44841 23.606838 159.79078 21.998157 158.92366 20.522778 C 158.11377 19.144772 157.156 17.818773 155.97603 16.74058 C 154.56006 15.44674 152.8517 14.486719 151.13757 13.626041 C 149.43894 12.773147 147.63761 12.103621 145.79836 11.624096 C 143.65701 11.065807 139.23545 10.623124 139.23545 10.623124 L 102.41651 10.623124 L 102.4439 62.54812 C 102.41077 60.717921 102.26704 58.886818 101.83257 57.118994 C 101.48663 55.711291 100.90814 54.341763 100.13655 53.114587 C 99.085133 51.442353 97.715739 49.958098 96.220507 48.667313 C 94.956039 47.575738 93.491568 46.723063 92.016113 45.939831 C 91.260365 45.53865 89.652433 44.938859 89.652433 44.938859 C 89.652433 44.938859 92.774756 43.499064 94.129679 42.463558 C 95.546339 41.380869 96.863909 40.107538 97.856067 38.626066 C 98.879447 37.097973 99.537368 35.330285 100.05283 33.564876 C 100.31592 32.663807 100.42722 31.720205 100.49777 30.784167 C 100.58137 29.674855 100.56538 28.555299 100.47038 27.446903 C 100.36292 26.192739 100.24028 24.91999 99.858528 23.720516 C 99.364419 22.168039 98.662974 20.653473 97.717057 19.326985 C 96.697158 17.896751 95.400282 16.648815 93.990669 15.600598 C 92.200228 14.269189 90.184465 13.213978 88.095422 12.430249 C 86.145871 11.698852 84.059616 11.380295 82.005354 11.040153 C 80.681362 10.820928 78.000948 10.623124 78.000948 10.623124 L 41.654846 10.623124 z M 135.8429 24.471374 C 135.8429 24.471374 139.1832 24.763138 140.62555 25.528157 C 141.88832 26.197931 143.01023 27.246757 143.74009 28.475781 C 144.40601 29.597136 144.62306 30.959195 144.74158 32.257979 C 144.82948 33.220941 144.74957 34.211266 144.51885 35.150309 C 144.21572 36.384263 143.8383 37.684328 143.01713 38.653971 C 142.26274 39.544767 141.15768 40.122288 140.06951 40.544812 C 138.4387 41.178035 134.89722 41.43468 134.89722 41.43468 L 119.93637 41.490491 L 119.88056 24.527185 L 135.8429 24.471374 z M 59.674935 24.55509 L 75.637268 24.55509 C 75.637268 24.55509 77.89578 24.864073 78.94611 25.278043 C 79.908904 25.657513 80.873601 26.141685 81.615714 26.86296 C 82.237289 27.46708 82.717602 28.242957 83.006327 29.060242 C 83.329546 29.975166 83.361736 30.981957 83.340157 31.952055 C 83.316777 33.003306 83.280117 34.111894 82.839412 35.066593 C 82.426021 35.962115 81.740751 36.771162 80.920666 37.319169 C 79.818933 38.055381 78.427494 38.235884 77.138468 38.542867 C 76.435844 38.710198 74.997513 38.876697 74.997513 38.876697 L 59.730745 38.876697 L 59.674935 24.55509 z M 59.70284 52.780757 L 76.58243 52.780757 C 76.58243 52.780757 79.341852 52.943367 80.642647 53.364701 C 81.628688 53.684086 82.628213 54.113735 83.39545 54.810608 C 84.084484 55.436448 84.573277 56.285109 84.925073 57.146899 C 85.285768 58.030488 85.430505 59.002481 85.481111 59.955513 C 85.519601 60.68034 85.430681 61.412927 85.286808 62.124373 C 85.093907 63.078271 84.915228 64.081365 84.39694 64.905082 C 83.900967 65.693332 83.155214 66.328994 82.366573 66.824345 C 81.551638 67.336211 80.600588 67.611587 79.669063 67.853222 C 78.726354 68.097759 76.77725 68.270251 76.77725 68.270251 L 59.730745 68.270251 L 59.70284 52.780757 z " /></g></svg>
