<?xml version="1.0" standalone="no"?>
<!DOCTYPE svg PUBLIC "-//W3C//DTD SVG 20010904//EN"
 "http://www.w3.org/TR/2001/REC-SVG-20010904/DTD/svg10.dtd">
<svg version="1.0" xmlns="http://www.w3.org/2000/svg"
 width="1394.000000pt" height="1394.000000pt" viewBox="0 0 1394.000000 1394.000000"
 preserveAspectRatio="xMidYMid meet">
<metadata>
Created by potrace 1.14, written by Peter Selinger 2001-2017
</metadata>
<g transform="translate(0.000000,1394.000000) scale(0.100000,-0.100000)"
fill="#000000" stroke="none">
<path d="M2149 9806 c-2 -3 -30 -7 -60 -10 -56 -6 -111 -14 -153 -22 -11 -2
-33 -6 -49 -9 -46 -9 -129 -32 -192 -55 -33 -12 -64 -23 -70 -24 -22 -6 -56
-22 -190 -86 -313 -152 -575 -341 -740 -535 -27 -32 -55 -63 -60 -69 -6 -6
-43 -51 -83 -101 -40 -49 -84 -102 -97 -118 -14 -15 -25 -29 -25 -31 0 -2 -22
-36 -48 -77 -103 -156 -238 -425 -257 -509 -2 -8 -10 -35 -19 -60 -16 -47 -41
-150 -51 -210 -3 -19 -8 -42 -10 -50 -2 -8 -6 -31 -9 -50 -16 -116 -19 -137
-24 -155 -9 -37 -10 -585 -1 -591 7 -4 1031 -8 1209 -4 13 0 15 25 16 163 0
89 6 194 14 232 15 82 68 249 101 320 26 57 98 184 114 202 29 34 35 43 35 48
0 4 6 12 13 19 6 7 30 35 52 62 145 176 337 312 479 340 84 16 132 24 146 24
16 0 17 -146 16 -2016 -1 -1333 2 -2018 9 -2023 11 -9 4819 -6 4876 2 20 3 56
8 80 11 24 3 59 10 77 15 18 5 33 9 35 9 7 -4 151 49 199 73 118 59 280 195
373 312 17 21 38 47 48 58 9 10 17 23 17 28 0 5 7 16 15 24 24 25 111 207 98
207 -3 0 -1 6 4 13 10 11 24 65 38 142 27 140 33 278 34 722 l1 332 529 0 530
0 21 -67 c59 -185 167 -421 250 -547 22 -33 43 -67 47 -75 4 -8 17 -26 30 -40
13 -14 23 -28 23 -31 0 -3 9 -17 20 -30 11 -13 23 -28 27 -34 86 -109 302
-332 365 -376 18 -13 42 -32 53 -42 74 -69 328 -229 496 -312 63 -31 128 -63
144 -73 17 -9 31 -15 33 -14 1 1 18 -5 38 -13 20 -8 42 -15 48 -15 7 0 16 -4
22 -8 5 -5 29 -14 53 -21 146 -42 310 -73 456 -87 52 -4 221 -4 260 0 82 11
227 40 300 61 28 7 61 16 75 19 14 3 40 9 57 15 36 11 40 8 48 -35 3 -16 12
-54 20 -84 9 -30 17 -64 19 -76 2 -11 6 -25 9 -31 3 -5 8 -20 10 -34 3 -13 20
-78 37 -144 18 -66 33 -126 33 -132 0 -17 6 -12 147 123 63 61 140 136 171
165 92 87 418 400 725 696 104 100 216 208 250 240 34 32 148 141 253 243 106
102 199 189 207 193 29 17 13 34 -43 47 -32 7 -62 16 -68 19 -5 3 -14 6 -20 7
-14 2 -73 19 -355 99 -52 14 -117 33 -145 40 -144 39 -171 46 -185 52 -8 4
-22 7 -30 8 -8 1 -26 6 -40 11 -14 4 -28 9 -32 10 -5 1 -9 2 -10 4 -2 1 -10 3
-19 5 -9 1 -43 11 -75 20 -33 9 -66 19 -74 20 -8 2 -71 20 -140 39 -69 20
-141 41 -160 46 -19 5 -62 17 -95 27 -33 9 -64 18 -70 19 -5 2 -35 10 -65 19
-30 9 -62 18 -71 20 -17 4 -142 39 -199 56 -19 6 -42 12 -50 13 -8 2 -22 6
-30 9 -14 6 -48 15 -185 52 -27 7 -65 18 -82 24 -18 5 -33 8 -33 6 0 -2 -16 3
-35 11 -40 16 -40 17 -19 -73 9 -37 18 -77 20 -88 2 -11 9 -45 16 -75 7 -30
13 -59 14 -65 0 -5 4 -21 7 -35 4 -14 9 -37 12 -52 5 -27 9 -47 20 -98 22 -98
22 -115 0 -117 -11 -1 -56 -9 -100 -17 -165 -31 -384 3 -555 86 -29 15 -153
90 -160 98 -3 3 -21 17 -40 31 -51 39 -141 128 -170 169 -13 19 -27 37 -30 40
-27 22 -160 259 -206 366 l-13 32 52 27 c221 114 378 244 519 431 116 152 236
421 274 609 2 11 8 43 14 70 21 109 25 158 24 360 -2 256 -13 381 -45 481 -5
17 -11 40 -13 50 -5 23 -34 112 -46 139 -36 85 -95 203 -109 219 -9 10 -14 19
-12 20 4 1 -47 85 -59 96 -3 3 -17 21 -32 41 -203 273 -715 518 -1179 565 -30
3 -65 8 -79 12 -14 3 -673 8 -1466 9 l-1441 3 1 -1881 c1 -1034 -2 -1882 -5
-1884 -3 -2 -6 15 -8 38 -2 23 -4 49 -5 57 -14 103 -38 207 -54 237 -6 10 -11
23 -12 28 -5 22 -22 63 -51 120 -86 170 -279 378 -464 502 -56 37 -234 137
-245 138 -3 0 -31 11 -63 24 l-59 24 107 53 c271 135 455 305 568 524 44 85
105 249 114 305 3 17 8 37 12 45 23 48 21 450 -3 565 -22 106 -30 136 -38 141
-4 3 -8 13 -8 22 0 32 -98 221 -153 295 -62 84 -213 237 -233 237 -8 0 -14 4
-14 9 0 17 -184 132 -305 191 -128 62 -272 114 -345 125 -24 4 -48 9 -52 11
-8 5 -14 7 -93 20 -64 10 -69 11 -75 14 -3 1 -16 3 -30 4 -78 9 -139 18 -165
24 -34 7 -2969 15 -2976 8z m7241 -1050 c36 -4 74 -10 85 -13 11 -4 27 -7 35
-8 8 -1 29 -4 45 -8 17 -4 39 -9 50 -11 94 -19 255 -142 311 -239 26 -43 55
-110 61 -142 8 -38 11 -50 13 -50 4 0 12 -108 13 -165 2 -155 -57 -347 -132
-432 -58 -66 -204 -148 -292 -163 -18 -3 -35 -7 -38 -9 -3 -2 -30 -7 -60 -11
-30 -4 -62 -8 -72 -10 -68 -13 -233 -18 -721 -19 -495 -2 -558 0 -559 14 0 8
-2 297 -3 642 l-2 626 570 1 c314 1 571 3 573 4 3 4 31 2 123 -7z m-4540 -10
c14 -4 45 -11 70 -16 113 -22 245 -85 303 -144 40 -42 67 -74 67 -82 0 -3 8
-18 19 -32 15 -22 30 -66 36 -102 0 -3 3 -9 7 -15 8 -13 4 -297 -4 -311 -4 -6
-9 -22 -12 -37 -14 -76 -100 -184 -185 -231 -54 -29 -238 -80 -338 -93 -32 -4
-323 -8 -648 -8 l-590 0 -3 540 -3 540 628 -1 c345 -1 639 -5 653 -8z m-413
-2126 c191 1 355 1 363 1 18 1 178 -12 200 -16 8 -1 39 -6 68 -10 63 -8 171
-46 226 -80 109 -65 182 -173 210 -315 15 -69 15 -78 15 -155 0 -109 -35 -264
-75 -332 -65 -111 -219 -208 -379 -237 -54 -10 -99 -17 -135 -22 -26 -3 -1142
-7 -1325 -4 l-30 0 -2 584 -1 585 245 0 c135 0 247 2 250 5 3 3 9 3 14 1 4 -3
164 -5 356 -5z"/>
</g>
</svg>
